<mxfile host="app.diagrams.net" modified="2024-05-20T16:02:41.818Z" agent="Mozilla/5.0 (Windows NT 10.0; Win64; x64; rv:126.0) Gecko/20100101 Firefox/126.0" version="24.4.0" etag="_oHzgpHa78O6tb_Fvi83" type="github">
  <diagram name="Page-1" id="Rc3ZT5jLjRNyVqI8c2r-">
    <mxGraphModel>
      <root>
        <mxCell id="0" />
        <mxCell id="1" parent="0" />
      </root>
    </mxGraphModel>
  </diagram>
</mxfile>
